# Blender 4.1.1
# www.blender.org
mtllib test.mtl
o Cube.003
v -0.010918 1.886560 0.648694
v -0.011969 1.908499 0.651151
v 0.012771 1.946443 0.546188
v 0.012771 1.958418 0.550306
v -0.018404 1.958518 0.575846
v 0.000217 1.811029 0.578885
v 0.000217 1.448308 0.480599
v 0.000059 1.878619 0.498454
v 0.000217 1.509435 0.401268
v 0.000217 1.828748 0.592921
v 0.000059 1.896022 0.505980
v 0.000217 1.848987 0.621696
v 0.000217 1.911776 0.546178
v 0.000217 1.864658 0.643635
v 0.000059 1.927447 0.565210
v 0.000217 1.886560 0.648694
v -0.013036 1.940631 0.566947
v 0.000204 1.908499 0.651151
v -0.013036 1.952605 0.571066
v -0.013036 1.938483 0.651567
v 0.000059 1.963905 0.580200
v -0.013036 1.946443 0.546188
v -0.013036 1.958418 0.550306
v -0.013036 1.958899 0.520446
v -0.013036 1.970873 0.524564
v -0.013036 1.984226 0.473944
v -0.013036 1.996200 0.478062
v -0.007805 1.994606 0.439804
v -0.007805 2.006580 0.443923
v -0.009903 1.924188 0.651369
v 0.000059 1.958518 0.575846
v -0.013036 1.944296 0.680215
v -0.013036 1.930001 0.680017
v -0.013036 1.947202 0.695993
v -0.013036 1.932907 0.695795
v -0.013036 1.967546 0.729208
v -0.013036 1.953251 0.729010
v -0.020312 1.940631 0.566947
v -0.024171 1.946110 0.568832
v -0.022643 1.937464 0.571736
v -0.021226 1.935835 0.566316
v -0.021789 1.941048 0.567091
v -0.023041 1.942236 0.567499
v -0.023877 1.944013 0.568111
v -0.024171 1.947125 0.569181
v -0.020312 1.952605 0.571066
v -0.021278 1.955571 0.573464
v -0.023809 1.949837 0.576092
v -0.023877 1.949222 0.569903
v -0.023041 1.951000 0.570514
v -0.021789 1.952188 0.570923
v -0.020307 1.938483 0.651567
v -0.024171 1.932377 0.651482
v -0.021786 1.938018 0.651560
v -0.023039 1.936694 0.651542
v -0.023877 1.934713 0.651514
v -0.014539 1.963905 0.580200
v -0.018404 1.959141 0.576350
v -0.016018 1.963542 0.579907
v -0.017272 1.962510 0.579073
v -0.018109 1.960964 0.577823
v -0.020312 1.946443 0.546188
v -0.024171 1.951924 0.548073
v -0.021789 1.946861 0.546331
v -0.023041 1.948049 0.546740
v -0.023877 1.949826 0.547351
v -0.024171 1.952937 0.548421
v -0.020312 1.958418 0.550306
v -0.023877 1.955034 0.549143
v -0.023041 1.956812 0.549754
v -0.021789 1.958000 0.550163
v -0.020312 1.958899 0.520446
v -0.024171 1.964381 0.522331
v -0.021789 1.959316 0.520589
v -0.023041 1.960505 0.520998
v -0.023877 1.962283 0.521610
v -0.024171 1.965392 0.522679
v -0.020312 1.970873 0.524564
v -0.023877 1.967489 0.523400
v -0.023041 1.969268 0.524012
v -0.021789 1.970456 0.524421
v -0.020312 1.984226 0.473944
v -0.024171 1.989707 0.475829
v -0.021789 1.984643 0.474087
v -0.023041 1.985831 0.474496
v -0.023877 1.987610 0.475108
v -0.024171 1.990719 0.476177
v -0.020312 1.996200 0.478062
v -0.023877 1.992817 0.476899
v -0.023041 1.994595 0.477510
v -0.021789 1.995783 0.477919
v -0.018940 1.998147 0.447117
v -0.015081 1.994606 0.439804
v -0.018646 1.996792 0.444319
v -0.017810 1.995643 0.441946
v -0.016558 1.994876 0.440361
v -0.018940 1.999162 0.447466
v -0.015081 2.006580 0.443923
v -0.018646 2.002001 0.446110
v -0.017810 2.004407 0.444961
v -0.016558 2.006016 0.444193
v -0.024171 1.930303 0.651453
v -0.019926 1.924188 0.651369
v -0.020831 1.919137 0.651299
v -0.023772 1.926560 0.646150
v -0.023877 1.927963 0.651421
v -0.023040 1.925979 0.651394
v -0.021665 1.924653 0.651375
v -0.020308 1.944296 0.680215
v -0.024171 1.938179 0.680130
v -0.021786 1.943830 0.680209
v -0.023039 1.942504 0.680190
v -0.023877 1.940520 0.680163
v -0.024171 1.936125 0.680102
v -0.020311 1.930001 0.680017
v -0.023877 1.933781 0.680070
v -0.023040 1.931794 0.680042
v -0.021788 1.930467 0.680024
v -0.020309 1.947202 0.695993
v -0.024171 1.941057 0.695907
v -0.021787 1.946734 0.695986
v -0.023040 1.945402 0.695968
v -0.023877 1.943409 0.695940
v -0.024171 1.939059 0.695880
v -0.020311 1.932907 0.695795
v -0.023877 1.936705 0.695847
v -0.023040 1.934709 0.695820
v -0.021788 1.933375 0.695801
v -0.024171 1.957816 0.723310
v -0.020310 1.967546 0.729208
v -0.023877 1.961540 0.725567
v -0.023040 1.964696 0.727481
v -0.021787 1.966806 0.728759
v -0.020310 1.953251 0.729010
v -0.024171 1.955868 0.723283
v -0.021788 1.953451 0.728574
v -0.023040 1.954018 0.727333
v -0.023877 1.954867 0.725475
v -0.010918 1.873679 0.504455
v -0.006200 1.878619 0.498454
v -0.010918 1.885086 0.501251
v -0.006200 1.509435 0.401268
v -0.010918 1.504759 0.407337
v -0.010918 1.815387 0.573591
v -0.006533 1.811029 0.578885
v -0.010918 1.452443 0.475233
v -0.006533 1.448308 0.480599
v -0.010918 1.832889 0.587467
v -0.006533 1.828748 0.592921
v -0.010918 1.853309 0.616497
v -0.006533 1.848987 0.621696
v -0.006533 1.864658 0.643635
v -0.010918 1.868905 0.638330
v -0.010918 1.871039 0.645109
v -0.006064 1.896022 0.505980
v -0.010918 1.891165 0.512378
v -0.010918 1.889369 0.503103
v -0.006064 1.911776 0.546178
v -0.010918 1.906789 0.552176
v -0.011939 1.922564 0.571310
v -0.009247 1.927447 0.565210
v -0.019446 1.933479 0.566005
vn -0.7815 -0.2672 0.5638
vn -0.7245 -0.1398 0.6750
vn -0.7311 0.3304 -0.5969
vn 0.7997 -0.2618 0.5403
vn 0.7135 -0.6624 0.2283
vn 0.8183 0.1972 -0.5399
vn 0.7497 -0.2064 -0.6288
vn 0.8103 -0.4202 0.4086
vn 0.7682 0.4664 -0.4385
vn 0.8332 -0.4464 0.3262
vn 0.8037 0.5166 -0.2951
vn 0.7771 -0.3420 0.5284
vn 0.8220 0.3664 -0.4360
vn 0.8211 -0.0863 0.5643
vn 0.6155 -0.2875 -0.7338
vn 0.8297 -0.0338 0.5572
vn 0.5681 0.7288 -0.3823
vn 0.7539 0.6541 0.0618
vn 0.7644 0.6104 -0.2077
vn 0.8213 -0.5333 -0.2028
vn 0.8118 0.5464 0.2059
vn 0.8316 -0.4930 -0.2557
vn 0.8224 0.5070 0.2583
vn 0.7910 -0.5654 -0.2339
vn 0.7816 0.5772 0.2363
vn 0.7504 -0.2482 -0.6126
vn 0.7474 0.5722 -0.3376
vn 0.6782 -0.3426 0.6502
vn 0.8290 0.3588 -0.4290
vn 0.8252 0.5554 -0.1029
vn 0.8076 -0.5780 0.1167
vn 0.7979 0.5650 -0.2102
vn 0.8055 -0.5513 0.2175
vn 0.7001 0.6216 0.3515
vn 0.7580 -0.3148 0.5712
vn -0.4480 -0.6096 -0.6540
vn -0.9965 -0.0840 -0.0018
vn -0.9797 -0.1816 -0.0843
vn -0.8220 -0.1680 -0.5441
vn -0.7892 -0.5262 -0.3166
vn -0.8921 -0.3741 -0.2534
vn -0.9525 -0.2277 -0.2022
vn -0.9981 0.0558 0.0261
vn -0.3844 0.9058 -0.1784
vn -0.8921 0.2201 -0.3946
vn -0.9991 -0.0243 -0.0358
vn -0.9406 0.3376 -0.0375
vn -0.8724 0.4887 -0.0045
vn -0.7610 0.6484 0.0217
vn -0.1611 0.9848 0.0649
vn -0.9978 0.0577 -0.0327
vn -0.5641 0.8248 0.0384
vn -0.8535 0.5211 0.0058
vn -0.9700 0.2426 -0.0180
vn -0.0886 0.9648 -0.2476
vn -0.8134 0.3746 -0.4450
vn -0.3649 0.8973 -0.2483
vn -0.6306 0.7155 -0.3007
vn -0.7773 0.5106 -0.3675
vn -0.1455 -0.9254 -0.3501
vn -0.9976 -0.0646 -0.0246
vn -0.5234 -0.7970 -0.3014
vn -0.8282 -0.5241 -0.1985
vn -0.9620 -0.2554 -0.0969
vn -0.9981 0.0578 0.0218
vn -0.1471 0.9250 0.3503
vn -0.9659 0.2422 0.0915
vn -0.8362 0.5129 0.1942
vn -0.5325 0.7915 0.2998
vn -0.1447 -0.8802 -0.4521
vn -0.9977 -0.0596 -0.0308
vn -0.5233 -0.7580 -0.3892
vn -0.8288 -0.4977 -0.2558
vn -0.9628 -0.2403 -0.1237
vn -0.9979 0.0579 0.0296
vn -0.1451 0.8799 0.4524
vn -0.9639 0.2370 0.1215
vn -0.8309 0.4948 0.2543
vn -0.5257 0.7565 0.3891
vn -0.1565 -0.9059 -0.3935
vn -0.9952 -0.0104 -0.0970
vn -0.5510 -0.7515 -0.3628
vn -0.8494 -0.4558 -0.2660
vn -0.9709 -0.1759 -0.1627
vn -0.9958 0.0713 -0.0582
vn -0.1588 0.9155 0.3696
vn -0.9708 0.2390 0.0195
vn -0.8502 0.5069 0.1422
vn -0.5524 0.7844 0.2820
vn -0.9879 0.0323 -0.1519
vn -0.1781 -0.4400 -0.8802
vn -0.9601 -0.0577 -0.2736
vn -0.8600 -0.1879 -0.4745
vn -0.5830 -0.3471 -0.7346
vn -0.9877 0.0668 -0.1417
vn -0.1758 0.8738 -0.4534
vn -0.9589 0.2068 -0.1943
vn -0.8574 0.4305 -0.2822
vn -0.5790 0.7142 -0.3933
vn -0.9970 -0.0728 0.0251
vn -0.4285 -0.6863 0.5877
vn -0.8840 -0.2467 0.3971
vn -0.9853 -0.1701 0.0179
vn -0.9447 -0.2754 0.1779
vn -0.8787 -0.4255 0.2165
vn -0.7708 -0.5789 0.2661
vn -0.1509 0.9706 -0.1877
vn -0.9980 0.0626 -0.0122
vn -0.5391 0.8269 -0.1598
vn -0.8394 0.5336 -0.1031
vn -0.9658 0.2546 -0.0493
vn -0.9980 -0.0618 0.0119
vn -0.1461 -0.9713 0.1875
vn -0.9663 -0.2528 0.0490
vn -0.8381 -0.5356 0.1035
vn -0.5305 -0.8323 0.1604
vn -0.1452 0.9223 -0.3582
vn -0.9983 0.0548 -0.0186
vn -0.5293 0.7896 -0.3105
vn -0.8356 0.5118 -0.1996
vn -0.9671 0.2381 -0.0892
vn -0.9971 -0.0692 0.0307
vn -0.1431 -0.9257 0.3502
vn -0.9581 -0.2646 0.1093
vn -0.8205 -0.5326 0.2078
vn -0.5155 -0.8016 0.3027
vn -0.9984 0.0521 0.0228
vn -0.2483 0.8409 0.4808
vn -0.9811 0.1744 0.0834
vn -0.9184 0.3497 0.1849
vn -0.6896 0.6308 0.3557
vn -0.1528 -0.4868 0.8601
vn -0.9968 -0.0432 0.0678
vn -0.5303 -0.4186 0.7372
vn -0.8288 -0.2820 0.4833
vn -0.9581 -0.1490 0.2448
vn -0.9705 0.0153 -0.2406
vn -0.3762 0.2082 -0.9028
vn -0.8254 0.1311 -0.5492
vn -0.4125 -0.2304 -0.8813
vn -0.8312 -0.3230 -0.4525
vn -0.9730 -0.1076 0.2040
vn -0.5520 -0.3680 0.7483
vn -0.8540 -0.5190 -0.0367
vn -0.4432 -0.8338 0.3293
vn -0.9711 -0.1720 0.1657
vn -0.5493 -0.6104 0.5707
vn -0.9623 -0.2256 0.1519
vn -0.5251 -0.6942 0.4923
vn -0.4001 -0.5727 0.7155
vn -0.9410 -0.3297 0.0763
vn -0.7855 -0.4367 0.4385
vn -0.3831 0.7152 -0.5846
vn -0.9630 0.2568 -0.0816
vn -0.8269 0.3452 -0.4440
vn -0.5505 0.7150 -0.4309
vn -0.9779 0.1652 -0.1285
vn -0.9611 -0.1545 -0.2289
vn -0.4528 0.2067 -0.8673
vn -0.7244 -0.1963 -0.6609
vt 0.375000 0.799946
vt 0.375000 0.864583
vt 0.375000 0.798551
vt 0.625000 0.798551
vt 0.625000 0.864583
vt 0.375000 0.385417
vt 0.625000 0.385417
vt 0.625000 0.454875
vt 0.375000 0.454875
vt 0.375000 0.454875
vt 0.375000 0.385417
vt 0.375000 0.385417
vt 0.375000 0.750000
vt 0.375000 0.789707
vt 0.375000 0.385417
vt 0.375000 0.500000
vt 0.375000 0.789707
vt 0.375000 0.517274
vt 0.375000 0.864583
vt 0.260417 0.500000
vt 0.335236 0.500000
vt 0.335229 0.750000
vt 0.260417 0.750000
vt 0.375000 0.500000
vt 0.375000 0.789707
vt 0.375000 0.460277
vt 0.375000 0.460277
vt 0.335250 0.500000
vt 0.335259 0.500000
vt 0.335267 0.500000
vt 0.375000 0.460271
vt 0.375000 0.460266
vt 0.375000 0.385417
vt 0.375000 0.460275
vt 0.375000 0.460277
vt 0.375000 0.516910
vt 0.375000 0.730555
vt 0.375000 0.735357
vt 0.375000 0.789771
vt 0.358713 0.758524
vt 0.375000 0.753883
vt 0.375000 0.751102
vt 0.375000 0.517209
vt 0.375000 0.730141
vt 0.375000 0.734311
vt 0.375000 0.517274
vt 0.375000 0.515386
vt 0.375000 0.731951
vt 0.375000 0.516118
vt 0.375000 0.731730
vt 0.739583 0.500000
vt 0.375000 0.774512
vt 0.375000 0.761630
vt 0.375000 0.753022
vt 0.375000 0.735356
vt 0.350395 0.499753
vt 0.375000 0.500078
vt 0.375000 0.774512
vt 0.375000 0.774512
vt 0.375000 0.774512
vt 0.375000 0.774512
vt 0.375000 0.774512
vt 0.350461 0.500000
vt 0.375000 0.475479
vt 0.375000 0.475478
vt 0.375000 0.475477
vt 0.350467 0.500000
vt 0.375000 0.475475
vt 0.375000 0.475472
vt 0.375000 0.500000
vt 0.350472 0.500000
vt 0.625000 0.730875
vt 0.625000 0.516910
vt 0.670125 0.500000
vt 0.739583 0.750000
vt 0.673551 0.750000
vt 0.375000 0.798551
s 1
usemtl Material.001
f 155/1/153 158/1/156 13/2/11 11/2/9
f 140/3/138 8/2/6 9/5/7 142/4/140
f 6/6/4 145/9/143 147/8/145 7/7/5
f 6/6/4 10/11/8 149/10/147 145/9/143
f 12/12/10 14/12/12 152/10/150 151/9/149
f 162/13/160 41/13/39 38/14/36 17/2/15 15/2/13 161/1/159
f 10/11/8 12/12/10 151/10/149 149/10/147
f 16/15/14 18/12/16 2/16/2 1/16/1
f 38/17/36 62/14/60 22/2/20 17/2/15
f 102/16/100 114/16/112 110/16/108 53/16/51
f 45/13/43 67/13/65 63/13/61 39/13/37
f 102/16/100 53/16/51 58/13/56 5/13/3 105/18/103
f 23/2/21 25/19/23 78/17/76 68/14/66
f 20/20/18 21/23/19 57/22/55 52/21/50
f 14/12/12 16/15/14 1/16/1 154/24/152 152/9/150
f 25/19/23 27/2/25 88/17/86 78/17/76
f 72/17/70 82/14/80 26/2/24 24/2/22
f 82/25/80 93/14/91 28/2/26 26/2/24
f 93/17/91 98/14/96 29/2/27 28/2/26
f 27/2/25 29/2/27 98/25/96 88/14/86
f 30/12/28 33/12/31 115/27/113 103/26/101
f 47/13/45 5/13/3 31/2/29 19/2/17 46/17/44
f 124/16/122 135/16/133 129/16/127 120/16/118
f 52/21/50 109/28/107 32/20/30 20/20/18
f 114/16/112 124/16/122 120/16/118 110/16/108
f 119/29/117 130/30/128 36/20/34 34/20/32
f 109/28/107 119/29/117 34/20/32 32/20/30
f 37/15/35 36/33/34 130/32/128 134/31/132
f 35/11/33 37/15/35 134/31/132 125/34/123
f 33/12/31 35/11/33 125/34/123 115/35/113
f 19/2/17 23/2/21 68/17/66 46/14/44
f 87/13/85 97/13/95 92/13/90 83/13/81
f 18/12/16 30/12/28 103/26/101 104/16/102 2/16/2
f 77/13/75 87/13/85 83/13/81 73/13/71
f 67/13/65 77/13/75 73/13/71 63/13/61
f 154/16/152 1/16/1 40/38/38 41/13/39 162/13/160 160/37/158 153/36/151
f 5/13/3 58/13/56 61/42/59 60/41/58 59/40/57 57/39/55 21/2/19 31/2/29
f 62/17/60 72/14/70 24/2/22 22/2/20
f 150/43/148 153/36/151 160/37/158 159/44/157
f 2/16/2 104/16/102 105/46/103 5/13/3 47/13/45 48/45/46
f 158/1/156 161/1/159 15/2/13 13/2/11
f 148/47/146 150/43/148 159/44/157 156/48/154
f 144/49/142 148/47/146 156/48/154 157/13/155 141/13/139 139/50/137
f 37/15/35 35/11/33 33/12/31 30/12/28 18/12/16 16/15/14 14/12/12 12/12/10 10/11/8 6/6/4 7/51/5 9/5/7 8/2/6 11/2/9 13/2/11 15/2/13 17/2/15 22/2/20 24/2/22 26/2/24 28/2/26 29/2/27 27/2/25 25/19/23 23/2/21 19/2/17 31/2/29 21/23/19 20/20/18 32/20/30 34/20/32 36/33/34
f 38/17/36 41/13/39 40/55/38 39/13/37 44/54/42 43/53/41 42/52/40
f 45/13/43 48/45/46 47/13/45 46/13/44 51/13/49 50/13/48 49/13/47
f 102/16/100 105/46/103 104/16/102 103/16/101 108/24/106 107/24/105 106/16/104
f 57/22/55 59/40/57 54/56/52 52/21/50
f 59/40/57 60/41/58 55/16/53 54/56/52
f 60/41/58 61/42/59 56/57/54 55/16/53
f 61/42/59 58/13/56 53/16/51 56/57/54
f 45/13/43 49/13/47 69/13/67 67/13/65
f 49/13/47 50/13/48 70/13/68 69/13/67
f 50/13/48 51/59/49 71/58/69 70/13/68
f 51/59/49 46/14/44 68/17/66 71/58/69
f 63/13/61 66/13/64 44/13/42 39/13/37
f 66/13/64 65/13/63 43/13/41 44/13/42
f 65/13/63 64/60/62 42/52/40 43/13/41
f 64/60/62 62/14/60 38/17/36 42/52/40
f 62/17/60 64/60/62 74/58/72 72/14/70
f 64/60/62 65/13/63 75/13/73 74/58/72
f 65/13/63 66/13/64 76/13/74 75/13/73
f 66/13/64 63/13/61 73/13/71 76/13/74
f 78/17/76 81/58/79 71/58/69 68/14/66
f 81/58/79 80/13/78 70/13/68 71/58/69
f 80/13/78 79/13/77 69/13/67 70/13/68
f 79/13/77 77/13/75 67/13/65 69/13/67
f 72/17/70 74/58/72 84/58/82 82/14/80
f 74/58/72 75/13/73 85/13/83 84/58/82
f 75/13/73 76/13/74 86/13/84 85/13/83
f 76/13/74 73/13/71 83/13/81 86/13/84
f 88/17/86 91/61/89 81/58/79 78/17/76
f 91/61/89 90/13/88 80/13/78 81/58/79
f 90/13/88 89/13/87 79/13/77 80/13/78
f 89/13/87 87/13/85 77/13/75 79/13/77
f 93/17/91 96/58/94 101/62/99 98/14/96
f 96/58/94 95/13/93 100/13/98 101/62/99
f 95/13/93 94/13/92 99/13/97 100/13/98
f 94/13/92 92/13/90 97/13/95 99/13/97
f 87/13/85 89/13/87 99/13/97 97/13/95
f 89/13/87 90/13/88 100/13/98 99/13/97
f 90/13/88 91/61/89 101/62/99 100/13/98
f 91/61/89 88/14/86 98/25/96 101/62/99
f 82/25/80 84/58/82 96/58/94 93/14/91
f 84/58/82 85/13/83 95/13/93 96/58/94
f 85/13/83 86/13/84 94/13/92 95/13/93
f 86/13/84 83/13/81 92/13/90 94/13/92
f 110/16/108 113/16/111 56/57/54 53/16/51
f 113/16/111 112/16/110 55/16/53 56/57/54
f 112/16/110 111/63/109 54/56/52 55/16/53
f 111/63/109 109/28/107 52/21/50 54/56/52
f 115/27/113 118/65/116 108/64/106 103/26/101
f 118/65/116 117/16/115 107/16/105 108/64/106
f 117/16/115 116/16/114 106/16/104 107/16/105
f 116/16/114 114/16/112 102/16/100 106/16/104
f 114/16/112 116/16/114 126/16/124 124/16/122
f 116/16/114 117/16/115 127/16/125 126/16/124
f 117/16/115 118/65/116 128/66/126 127/16/125
f 118/65/116 115/35/113 125/34/123 128/66/126
f 109/28/107 111/63/109 121/67/119 119/29/117
f 111/63/109 112/16/110 122/16/120 121/67/119
f 112/16/110 113/16/111 123/16/121 122/16/120
f 113/16/111 110/16/108 120/16/118 123/16/121
f 130/32/128 133/69/131 136/68/134 134/31/132
f 133/69/131 132/16/130 137/16/135 136/68/134
f 132/16/130 131/70/129 138/16/136 137/16/135
f 131/70/129 129/16/127 135/16/133 138/16/136
f 119/29/117 121/67/119 133/71/131 130/30/128
f 121/67/119 122/16/120 132/16/130 133/71/131
f 122/16/120 123/16/121 131/70/129 132/16/130
f 123/16/121 120/16/118 129/16/127 131/70/129
f 134/31/132 136/68/134 128/66/126 125/34/123
f 136/68/134 137/16/135 127/16/125 128/66/126
f 137/16/135 138/16/136 126/16/124 127/16/125
f 138/16/136 135/16/133 124/16/122 126/16/124
f 1/16/1 2/16/2 48/45/46 45/13/43 39/13/37 40/55/38
f 139/50/137 141/13/139 140/13/138
f 142/4/140 143/72/141 139/50/137 140/3/138
f 146/73/144 143/72/141 142/76/140 9/75/7 7/51/5 147/74/145
f 152/10/150 154/16/152 153/16/151
f 146/73/144 147/8/145 145/9/143 144/49/142
f 144/49/142 145/9/143 149/10/147 148/47/146
f 148/47/146 149/10/147 151/10/149 150/43/148
f 152/10/150 153/36/151 150/43/148 151/9/149
f 144/49/142 139/50/137 143/72/141 146/73/144
f 155/1/153 157/13/155 156/13/154
f 160/37/158 162/13/160 161/13/159
f 159/44/157 158/1/156 155/1/153 156/48/154
f 158/1/156 159/44/157 160/37/158 161/1/159
f 141/13/139 157/13/155 155/1/153 11/2/9 8/2/6 140/77/138
l 4 3
l 4 23
