{
	"asset":{
		"generator":"Khronos glTF Blender I/O v4.1.63",
		"version":"2.0"
	},
	"extensionsUsed":[
		"KHR_texture_transform"
	],
	"extensionsRequired":[
		"KHR_texture_transform"
	],
	"scene":0,
	"scenes":[
		{
			"name":"Scene",
			"nodes":[
				0,
				1,
				2
			]
		}
	],
	"nodes":[
		{
			"mesh":0,
			"name":"tree_small_02"
		},
		{
			"mesh":1,
			"name":"tree_small_02_branches"
		},
		{
			"mesh":2,
			"name":"tree_small_02_leaves"
		}
	],
	"materials":[
		{
			"doubleSided":true,
			"name":"tree_small_02",
			"normalTexture":{
				"index":0
			},
			"pbrMetallicRoughness":{
				"baseColorTexture":{
					"index":1
				},
				"metallicFactor":0,
				"metallicRoughnessTexture":{
					"index":2
				}
			}
		},
		{
			"doubleSided":true,
			"name":"tree_small_02_branches",
			"normalTexture":{
				"extensions":{
					"KHR_texture_transform":{
						"offset":[
							0,
							-13.19999885559082
						],
						"scale":[
							15.600000381469727,
							14.19999885559082
						]
					}
				},
				"index":3
			},
			"pbrMetallicRoughness":{
				"baseColorTexture":{
					"extensions":{
						"KHR_texture_transform":{
							"offset":[
								0,
								-13.19999885559082
							],
							"scale":[
								15.600000381469727,
								14.19999885559082
							]
						}
					},
					"index":4
				},
				"metallicFactor":0,
				"metallicRoughnessTexture":{
					"extensions":{
						"KHR_texture_transform":{
							"offset":[
								0,
								-13.19999885559082
							],
							"scale":[
								15.600000381469727,
								14.19999885559082
							]
						}
					},
					"index":5
				}
			}
		},
		{
			"alphaCutoff":0.5,
			"alphaMode":"MASK",
			"doubleSided":true,
			"name":"tree_small_02_leaves",
			"normalTexture":{
				"index":6
			},
			"pbrMetallicRoughness":{
				"baseColorTexture":{
					"index":7
				},
				"metallicFactor":0,
				"metallicRoughnessTexture":{
					"index":8
				}
			}
		}
	],
	"meshes":[
		{
			"name":"tree_small_02_DECIMATE",
			"primitives":[
				{
					"attributes":{
						"POSITION":0,
						"NORMAL":1,
						"TEXCOORD_0":2
					},
					"indices":3,
					"material":0
				}
			]
		},
		{
			"name":"BezierCurve.002",
			"primitives":[
				{
					"attributes":{
						"POSITION":4,
						"NORMAL":5,
						"TEXCOORD_0":6
					},
					"indices":7,
					"material":1
				}
			]
		},
		{
			"name":"Cube.349",
			"primitives":[
				{
					"attributes":{
						"POSITION":8,
						"NORMAL":9,
						"TEXCOORD_0":10
					},
					"indices":11,
					"material":2
				}
			]
		}
	],
	"textures":[
		{
			"sampler":0,
			"source":0
		},
		{
			"sampler":0,
			"source":1
		},
		{
			"sampler":0,
			"source":2
		},
		{
			"sampler":0,
			"source":3
		},
		{
			"sampler":0,
			"source":4
		},
		{
			"sampler":0,
			"source":5
		},
		{
			"sampler":0,
			"source":6
		},
		{
			"sampler":0,
			"source":7
		},
		{
			"sampler":0,
			"source":8
		}
	],
	"images":[
		{
			"mimeType":"image/jpeg",
			"name":"tree_small_02_nor_gl",
			"uri":"textures/tree_small_02_nor_gl_1k.jpg"
		},
		{
			"mimeType":"image/jpeg",
			"name":"tree_small_02_diff",
			"uri":"textures/tree_small_02_diff_1k.jpg"
		},
		{
			"mimeType":"image/jpeg",
			"name":"tree_small_02_rough",
			"uri":"textures/tree_small_02_arm_1k.jpg"
		},
		{
			"mimeType":"image/jpeg",
			"name":"tree_small_02_branch_nor_gl",
			"uri":"textures/tree_small_02_branch_nor_gl_1k.jpg"
		},
		{
			"mimeType":"image/jpeg",
			"name":"tree_small_02_branch_diff",
			"uri":"textures/tree_small_02_branch_diff_1k.jpg"
		},
		{
			"mimeType":"image/jpeg",
			"name":"tree_small_02_branch_rough",
			"uri":"textures/tree_small_02_branch_arm_1k.jpg"
		},
		{
			"mimeType":"image/jpeg",
			"name":"tree_small_02_leaves_nor_gl",
			"uri":"textures/tree_small_02_leaves_nor_gl_1k.jpg"
		},
		{
			"mimeType":"image/png",
			"name":"tree_small_02_leaves_diff",
			"uri":"textures/tree_small_02_leaves_diff_1k.jpg"
		},
		{
			"mimeType":"image/jpeg",
			"name":"tree_small_02_leaves_rough",
			"uri":"textures/tree_small_02_leaves_arm_1k.jpg"
		}
	],
	"accessors":[
		{
			"bufferView":0,
			"componentType":5126,
			"count":5705,
			"max":[
				0.930513322353363,
				3.6646950244903564,
				1.92349374294281
			],
			"min":[
				-0.7661404013633728,
				-0.024194231256842613,
				-0.3923951983451843
			],
			"type":"VEC3"
		},
		{
			"bufferView":1,
			"componentType":5126,
			"count":5705,
			"type":"VEC3"
		},
		{
			"bufferView":2,
			"componentType":5126,
			"count":5705,
			"type":"VEC2"
		},
		{
			"bufferView":3,
			"componentType":5123,
			"count":25461,
			"type":"SCALAR"
		},
		{
			"bufferView":4,
			"componentType":5126,
			"count":44816,
			"max":[
				1.4185545444488525,
				4.392508029937744,
				2.7930593490600586
			],
			"min":[
				-1.095399260520935,
				1.6249498128890991,
				-1.263813853263855
			],
			"type":"VEC3"
		},
		{
			"bufferView":5,
			"componentType":5126,
			"count":44816,
			"type":"VEC3"
		},
		{
			"bufferView":6,
			"componentType":5126,
			"count":44816,
			"type":"VEC2"
		},
		{
			"bufferView":7,
			"componentType":5123,
			"count":170664,
			"type":"SCALAR"
		},
		{
			"bufferView":8,
			"componentType":5126,
			"count":783340,
			"max":[
				1.6077078580856323,
				4.532637596130371,
				2.9104835987091064
			],
			"min":[
				-1.3090745210647583,
				1.4583454132080078,
				-1.3831350803375244
			],
			"type":"VEC3"
		},
		{
			"bufferView":9,
			"componentType":5126,
			"count":783340,
			"type":"VEC3"
		},
		{
			"bufferView":10,
			"componentType":5126,
			"count":783340,
			"type":"VEC2"
		},
		{
			"bufferView":11,
			"componentType":5125,
			"count":1745439,
			"type":"SCALAR"
		}
	],
	"bufferViews":[
		{
			"buffer":0,
			"byteLength":68460,
			"byteOffset":0,
			"target":34962
		},
		{
			"buffer":0,
			"byteLength":68460,
			"byteOffset":68460,
			"target":34962
		},
		{
			"buffer":0,
			"byteLength":45640,
			"byteOffset":136920,
			"target":34962
		},
		{
			"buffer":0,
			"byteLength":50922,
			"byteOffset":182560,
			"target":34963
		},
		{
			"buffer":0,
			"byteLength":537792,
			"byteOffset":233484,
			"target":34962
		},
		{
			"buffer":0,
			"byteLength":537792,
			"byteOffset":771276,
			"target":34962
		},
		{
			"buffer":0,
			"byteLength":358528,
			"byteOffset":1309068,
			"target":34962
		},
		{
			"buffer":0,
			"byteLength":341328,
			"byteOffset":1667596,
			"target":34963
		},
		{
			"buffer":0,
			"byteLength":9400080,
			"byteOffset":2008924,
			"target":34962
		},
		{
			"buffer":0,
			"byteLength":9400080,
			"byteOffset":11409004,
			"target":34962
		},
		{
			"buffer":0,
			"byteLength":6266720,
			"byteOffset":20809084,
			"target":34962
		},
		{
			"buffer":0,
			"byteLength":6981756,
			"byteOffset":27075804,
			"target":34963
		}
	],
	"samplers":[
		{
			"magFilter":9729,
			"minFilter":9987
		}
	],
	"buffers":[
		{
			"byteLength":34057560,
			"uri":"mytree.bin"
		}
	]
}
