{
	"asset":{
		"generator":"Khronos glTF Blender I/O v4.1.63",
		"version":"2.0"
	},
	"extensionsUsed":[
		"KHR_texture_transform"
	],
	"extensionsRequired":[
		"KHR_texture_transform"
	],
	"scene":0,
	"scenes":[
		{
			"name":"Scene",
			"nodes":[
				0,
				1,
				2
			]
		}
	],
	"nodes":[
		{
			"mesh":0,
			"name":"tree_small_02"
		},
		{
			"mesh":1,
			"name":"tree_small_02_branches"
		},
		{
			"mesh":2,
			"name":"tree_small_02_leaves"
		}
	],
	"materials":[
		{
			"doubleSided":true,
			"name":"tree_small_02",
			"normalTexture":{
				"index":0
			},
			"pbrMetallicRoughness":{
				"baseColorTexture":{
					"index":1
				},
				"metallicFactor":0,
				"metallicRoughnessTexture":{
					"index":2
				}
			}
		},
		{
			"doubleSided":true,
			"name":"tree_small_02_branches",
			"normalTexture":{
				"extensions":{
					"KHR_texture_transform":{
						"offset":[
							0,
							-13.19999885559082
						],
						"scale":[
							15.600000381469727,
							14.19999885559082
						]
					}
				},
				"index":3
			},
			"pbrMetallicRoughness":{
				"baseColorTexture":{
					"extensions":{
						"KHR_texture_transform":{
							"offset":[
								0,
								-13.19999885559082
							],
							"scale":[
								15.600000381469727,
								14.19999885559082
							]
						}
					},
					"index":4
				},
				"metallicFactor":0,
				"metallicRoughnessTexture":{
					"extensions":{
						"KHR_texture_transform":{
							"offset":[
								0,
								-13.19999885559082
							],
							"scale":[
								15.600000381469727,
								14.19999885559082
							]
						}
					},
					"index":5
				}
			}
		},
		{
			"alphaCutoff":0.5,
			"alphaMode":"MASK",
			"doubleSided":true,
			"name":"tree_small_02_leaves",
			"normalTexture":{
				"index":6
			},
			"pbrMetallicRoughness":{
				"baseColorTexture":{
					"index":7
				},
				"metallicFactor":0,
				"metallicRoughnessTexture":{
					"index":8
				}
			}
		}
	],
	"meshes":[
		{
			"name":"tree_small_02_DECIMATE",
			"primitives":[
				{
					"attributes":{
						"POSITION":0,
						"NORMAL":1,
						"TEXCOORD_0":2
					},
					"indices":3,
					"material":0
				}
			]
		},
		{
			"name":"BezierCurve.002",
			"primitives":[
				{
					"attributes":{
						"POSITION":4,
						"NORMAL":5,
						"TEXCOORD_0":6
					},
					"indices":7,
					"material":1
				}
			]
		},
		{
			"name":"Cube.349",
			"primitives":[
				{
					"attributes":{
						"POSITION":8,
						"NORMAL":9,
						"TEXCOORD_0":10
					},
					"indices":11,
					"material":2
				}
			]
		}
	],
	"textures":[
		{
			"sampler":0,
			"source":0
		},
		{
			"sampler":0,
			"source":1
		},
		{
			"sampler":0,
			"source":2
		},
		{
			"sampler":0,
			"source":3
		},
		{
			"sampler":0,
			"source":4
		},
		{
			"sampler":0,
			"source":5
		},
		{
			"sampler":0,
			"source":6
		},
		{
			"sampler":0,
			"source":7
		},
		{
			"sampler":0,
			"source":8
		}
	],
	"images":[
		{
			"mimeType":"image/jpeg",
			"name":"tree_small_02_nor_gl",
			"uri":"tree_small_02_nor_gl.jpg"
		},
		{
			"mimeType":"image/jpeg",
			"name":"tree_small_02_diff",
			"uri":"tree_small_02_diff.jpg"
		},
		{
			"mimeType":"image/jpeg",
			"name":"tree_small_02_rough",
			"uri":"tree_small_02_rough.jpg"
		},
		{
			"mimeType":"image/jpeg",
			"name":"tree_small_02_branch_nor_gl",
			"uri":"tree_small_02_branch_nor_gl.jpg"
		},
		{
			"mimeType":"image/jpeg",
			"name":"tree_small_02_branch_diff",
			"uri":"tree_small_02_branch_diff.jpg"
		},
		{
			"mimeType":"image/jpeg",
			"name":"tree_small_02_branch_rough",
			"uri":"tree_small_02_branch_rough.jpg"
		},
		{
			"mimeType":"image/jpeg",
			"name":"tree_small_02_leaves_nor_gl",
			"uri":"tree_small_02_leaves_nor_gl.jpg"
		},
		{
			"mimeType":"image/png",
			"name":"tree_small_02_leaves_diff",
			"uri":"tree_small_02_leaves_diff.png"
		},
		{
			"mimeType":"image/jpeg",
			"name":"tree_small_02_leaves_rough",
			"uri":"tree_small_02_leaves_rough.jpg"
		}
	],
	"accessors":[
		{
			"bufferView":0,
			"componentType":5126,
			"count":4187,
			"max":[
				0.9307382106781006,
				3.6659066677093506,
				1.92349374294281
			],
			"min":[
				-0.7661404013633728,
				-0.024013599380850792,
				-0.3923951983451843
			],
			"type":"VEC3"
		},
		{
			"bufferView":1,
			"componentType":5126,
			"count":4187,
			"type":"VEC3"
		},
		{
			"bufferView":2,
			"componentType":5126,
			"count":4187,
			"type":"VEC2"
		},
		{
			"bufferView":3,
			"componentType":5123,
			"count":17058,
			"type":"SCALAR"
		},
		{
			"bufferView":4,
			"componentType":5126,
			"count":44816,
			"max":[
				1.4185545444488525,
				4.392508029937744,
				2.7930593490600586
			],
			"min":[
				-1.095399260520935,
				1.6249498128890991,
				-1.263813853263855
			],
			"type":"VEC3"
		},
		{
			"bufferView":5,
			"componentType":5126,
			"count":44816,
			"type":"VEC3"
		},
		{
			"bufferView":6,
			"componentType":5126,
			"count":44816,
			"type":"VEC2"
		},
		{
			"bufferView":7,
			"componentType":5123,
			"count":170664,
			"type":"SCALAR"
		},
		{
			"bufferView":8,
			"componentType":5126,
			"count":400625,
			"max":[
				1.6142562627792358,
				4.53654146194458,
				2.912952184677124
			],
			"min":[
				-1.3146320581436157,
				1.4589474201202393,
				-1.3871169090270996
			],
			"type":"VEC3"
		},
		{
			"bufferView":9,
			"componentType":5126,
			"count":400625,
			"type":"VEC3"
		},
		{
			"bufferView":10,
			"componentType":5126,
			"count":400625,
			"type":"VEC2"
		},
		{
			"bufferView":11,
			"componentType":5125,
			"count":628353,
			"type":"SCALAR"
		}
	],
	"bufferViews":[
		{
			"buffer":0,
			"byteLength":50244,
			"byteOffset":0,
			"target":34962
		},
		{
			"buffer":0,
			"byteLength":50244,
			"byteOffset":50244,
			"target":34962
		},
		{
			"buffer":0,
			"byteLength":33496,
			"byteOffset":100488,
			"target":34962
		},
		{
			"buffer":0,
			"byteLength":34116,
			"byteOffset":133984,
			"target":34963
		},
		{
			"buffer":0,
			"byteLength":537792,
			"byteOffset":168100,
			"target":34962
		},
		{
			"buffer":0,
			"byteLength":537792,
			"byteOffset":705892,
			"target":34962
		},
		{
			"buffer":0,
			"byteLength":358528,
			"byteOffset":1243684,
			"target":34962
		},
		{
			"buffer":0,
			"byteLength":341328,
			"byteOffset":1602212,
			"target":34963
		},
		{
			"buffer":0,
			"byteLength":4807500,
			"byteOffset":1943540,
			"target":34962
		},
		{
			"buffer":0,
			"byteLength":4807500,
			"byteOffset":6751040,
			"target":34962
		},
		{
			"buffer":0,
			"byteLength":3205000,
			"byteOffset":11558540,
			"target":34962
		},
		{
			"buffer":0,
			"byteLength":2513412,
			"byteOffset":14763540,
			"target":34963
		}
	],
	"samplers":[
		{
			"magFilter":9729,
			"minFilter":9987
		}
	],
	"buffers":[
		{
			"byteLength":17276952,
			"uri":"mytree_1.bin"
		}
	]
}
