{
	"asset":{
		"generator":"Khronos glTF Blender I/O v4.1.63",
		"version":"2.0"
	},
	"extensionsUsed":[
		"KHR_materials_specular"
	],
	"scene":0,
	"scenes":[
		{
			"name":"Scene",
			"nodes":[
				0,
				1
			]
		}
	],
	"nodes":[
		{
			"mesh":0,
			"name":"Alpha_Joints",
			"rotation":[
				0,
				-0.7071068286895752,
				0.7071068286895752,
				5.358058885462924e-08
			],
			"scale":[
				0.009999999776482582,
				0.009999999776482582,
				0.009999999776482582
			]
		},
		{
			"mesh":1,
			"name":"Alpha_Surface",
			"rotation":[
				0,
				-0.7071068286895752,
				0.7071068286895752,
				5.358058885462924e-08
			],
			"scale":[
				0.009999999776482582,
				0.009999999776482582,
				0.009999999776482582
			]
		}
	],
	"materials":[
		{
			"doubleSided":true,
			"extensions":{
				"KHR_materials_specular":{
					"specularColorFactor":[
						2.0,
						2.0,
						2.0
					]
				}
			},
			"name":"Alpha_Joints_MAT",
			"pbrMetallicRoughness":{
				"baseColorFactor":[
					0.15355153381824493,
					0.21289387345314026,
					0.2222171425819397,
					1
				],
				"metallicFactor":0.5,
				"roughnessFactor":0.5527864098548889
			}
		},
		{
			"doubleSided":true,
			"extensions":{
				"KHR_materials_specular":{
					"specularColorFactor":[
						2.0,
						2.0,
						2.0
					]
				}
			},
			"name":"Alpha_Body_MAT",
			"pbrMetallicRoughness":{
				"baseColorFactor":[
					0.09657000750303268,
					0.42161980271339417,
					0.5220000147819519,
					1
				],
				"metallicFactor":0,
				"roughnessFactor":0.5527864098548889
			}
		}
	],
	"meshes":[
		{
			"name":"Alpha_Joints",
			"primitives":[
				{
					"attributes":{
						"POSITION":0,
						"NORMAL":1,
						"TEXCOORD_0":2
					},
					"indices":3,
					"material":0
				}
			]
		},
		{
			"name":"Alpha_Surface",
			"primitives":[
				{
					"attributes":{
						"POSITION":4,
						"NORMAL":5,
						"TEXCOORD_0":6
					},
					"indices":7,
					"material":1
				}
			]
		}
	],
	"accessors":[
		{
			"bufferView":0,
			"componentType":5126,
			"count":12473,
			"max":[
				94.52721405029297,
				13.96785831451416,
				-0.7688927054405212
			],
			"min":[
				-94.5274887084961,
				-13.592483520507812,
				-159.83914184570312
			],
			"type":"VEC3"
		},
		{
			"bufferView":1,
			"componentType":5126,
			"count":12473,
			"type":"VEC3"
		},
		{
			"bufferView":2,
			"componentType":5126,
			"count":12473,
			"type":"VEC2"
		},
		{
			"bufferView":3,
			"componentType":5123,
			"count":62520,
			"type":"SCALAR"
		},
		{
			"bufferView":4,
			"componentType":5126,
			"count":22961,
			"max":[
				97.34235382080078,
				20.37575912475586,
				0.01022443175315857
			],
			"min":[
				-97.3426284790039,
				-16.05109405517578,
				-180.4632110595703
			],
			"type":"VEC3"
		},
		{
			"bufferView":5,
			"componentType":5126,
			"count":22961,
			"type":"VEC3"
		},
		{
			"bufferView":6,
			"componentType":5126,
			"count":22961,
			"type":"VEC2"
		},
		{
			"bufferView":7,
			"componentType":5123,
			"count":103440,
			"type":"SCALAR"
		}
	],
	"bufferViews":[
		{
			"buffer":0,
			"byteLength":149676,
			"byteOffset":0,
			"target":34962
		},
		{
			"buffer":0,
			"byteLength":149676,
			"byteOffset":149676,
			"target":34962
		},
		{
			"buffer":0,
			"byteLength":99784,
			"byteOffset":299352,
			"target":34962
		},
		{
			"buffer":0,
			"byteLength":125040,
			"byteOffset":399136,
			"target":34963
		},
		{
			"buffer":0,
			"byteLength":275532,
			"byteOffset":524176,
			"target":34962
		},
		{
			"buffer":0,
			"byteLength":275532,
			"byteOffset":799708,
			"target":34962
		},
		{
			"buffer":0,
			"byteLength":183688,
			"byteOffset":1075240,
			"target":34962
		},
		{
			"buffer":0,
			"byteLength":206880,
			"byteOffset":1258928,
			"target":34963
		}
	],
	"buffers":[
		{
			"byteLength":1465808,
			"uri":"pedestrains.bin"
		}
	]
}
