{
	"asset":{
		"generator":"Khronos glTF Blender I/O v4.1.63",
		"version":"2.0"
	},
	"extensionsUsed":[
		"KHR_materials_specular"
	],
	"scene":0,
	"scenes":[
		{
			"name":"Scene",
			"nodes":[
				0
			]
		}
	],
	"nodes":[
		{
			"mesh":0,
			"name":"lowpolyPeopleCasual.607",
			"rotation":[
				0.7071068286895752,
				0,
				0,
				0.7071068286895752
			],
			"scale":[
				0.009999999776482582,
				0.009999999776482582,
				0.010999999940395355
			]
		}
	],
	"materials":[
		{
			"doubleSided":true,
			"extensions":{
				"KHR_materials_specular":{
					"specularFactor":0
				}
			},
			"name":"lowpolyPeopleCasual",
			"pbrMetallicRoughness":{
				"baseColorTexture":{
					"index":0
				},
				"metallicFactor":0
			}
		}
	],
	"meshes":[
		{
			"name":"lowpolyPeopleCasual.614",
			"primitives":[
				{
					"attributes":{
						"POSITION":0,
						"NORMAL":1,
						"TEXCOORD_0":2
					},
					"indices":3,
					"material":0
				}
			]
		}
	],
	"textures":[
		{
			"sampler":0,
			"source":0
		}
	],
	"images":[
		{
			"mimeType":"image/jpeg",
			"name":"sketchfab_shadowMap.tga.jpeg",
			"uri":"../../../../../../../../../Downloads/Lowpoly%20People%20Casual%20Pack%20Vol.1%20-0654799419a642c7b5e39d9148b0b81a/tex/sketchfab_shadowMap.tga.jpeg"
		}
	],
	"accessors":[
		{
			"bufferView":0,
			"componentType":5126,
			"count":4158,
			"max":[
				28.794307708740234,
				27.08057403564453,
				0.008870000019669533
			],
			"min":[
				-26.644426345825195,
				-22.86151885986328,
				-162.3870086669922
			],
			"type":"VEC3"
		},
		{
			"bufferView":1,
			"componentType":5126,
			"count":4158,
			"type":"VEC3"
		},
		{
			"bufferView":2,
			"componentType":5126,
			"count":4158,
			"type":"VEC2"
		},
		{
			"bufferView":3,
			"componentType":5123,
			"count":4158,
			"type":"SCALAR"
		}
	],
	"bufferViews":[
		{
			"buffer":0,
			"byteLength":49896,
			"byteOffset":0,
			"target":34962
		},
		{
			"buffer":0,
			"byteLength":49896,
			"byteOffset":49896,
			"target":34962
		},
		{
			"buffer":0,
			"byteLength":33264,
			"byteOffset":99792,
			"target":34962
		},
		{
			"buffer":0,
			"byteLength":8316,
			"byteOffset":133056,
			"target":34963
		}
	],
	"samplers":[
		{
			"magFilter":9729,
			"minFilter":9987
		}
	],
	"buffers":[
		{
			"byteLength":141372,
			"uri":"people.bin"
		}
	]
}
