g ____01
v 33.7889 -19.2586 20 0.494118 0.494118 0.52549
v 33.7889 -19.2586 0 0.494118 0.494118 0.52549
v 33.7889 -8.07666 0 0.494118 0.494118 0.52549
v 33.7889 -8.07666 20 0.494118 0.494118 0.52549
v 13.04 -19.2505 20 0.494118 0.494118 0.52549
v 13.04 -19.2505 0 0.494118 0.494118 0.52549
v 13.04 -8.08 20 0.494118 0.494118 0.52549
v 13.04 -8.08 0 0.494118 0.494118 0.52549
v 21.97 -8.08 0 0.494118 0.494118 0.52549
v 21.97 -8.07666 0 0.494118 0.494118 0.52549
v 21.97 -8.08 20 0.494118 0.494118 0.52549
v 21.97 -8.07666 20 0.494118 0.494118 0.52549
vn 1 0 -0
vn -0.000390757 -1 0
vn -1 0 0
vn -0 -0 -1
vn 0 0 1
vn -0 1 -0
vn -1 -0 0
vt -10 -5.59096
vt 10 -5.59096
vt 10 5.59096
vt -10 5.59096
vt -10.3744 10
vt -10.3744 -10
vt 10.3744 -10
vt 10.3744 10
vt 10 0.855
vt -10 0.855
vt -10 -10.3155
vt 10 -10.3155
vt 33.7889 -8.07666
vt 33.7889 -19.2586
vt 21.97 -8.08
vt 13.04 -19.2505
vt 13.04 -8.08
vt 21.97 -8.07666
vt 13.04 -19.2505
vt 33.7889 -19.2586
vt 21.97 -8.08
vt 33.7889 -8.07666
vt 21.97 -8.07666
vt 13.04 -8.08
vt -10 1.73
vt 10 1.73
vt 10 -7.2
vt -10 -7.2
vt -10 0.00166897
vt 10 0.00166897
vt 10 -0.00166897
vt -10 -0.00166897
vt 10 5.90944
vt -10 5.90944
vt -10 -5.90944
vt 10 -5.90944
f 1/1/1 2/2/1 3/3/1
f 3/3/1 4/4/1 1/1/1
f 5/5/2 6/6/2 2/7/2
f 2/7/2 1/8/2 5/5/2
f 7/9/3 8/10/3 6/11/3
f 6/11/3 5/12/3 7/9/3
f 3/13/4 2/14/4 9/15/4
f 6/16/4 8/17/4 9/15/4
f 9/15/4 2/14/4 6/16/4
f 9/15/4 10/18/4 3/13/4
f 5/19/5 1/20/5 11/21/5
f 4/22/5 12/23/5 11/21/5
f 11/21/5 1/20/5 4/22/5
f 11/21/5 7/24/5 5/19/5
f 11/25/6 9/26/6 8/27/6
f 8/27/6 7/28/6 11/25/6
f 12/29/7 10/30/7 9/31/7
f 9/31/7 11/32/7 12/29/7
f 4/33/6 3/34/6 10/35/6
f 10/35/6 12/36/6 4/33/6
g ____53
v 33.79 5.93 20 0.494118 0.494118 0.52549
v 33.79 5.93 0 0.494118 0.494118 0.52549
v 33.79 18.93 0 0.494118 0.494118 0.52549
v 33.79 18.93 20 0.494118 0.494118 0.52549
v 9.62 5.93 20 0.494118 0.494118 0.52549
v 9.62 5.93 0 0.494118 0.494118 0.52549
v 9.62 11.09 20 0.494118 0.494118 0.52549
v 9.62 11.09 0 0.494118 0.494118 0.52549
v 3.79 11.09 20 0.494118 0.494118 0.52549
v 3.79 11.09 0 0.494118 0.494118 0.52549
v 3.79 5.93 20 0.494118 0.494118 0.52549
v 3.79 5.93 0 0.494118 0.494118 0.52549
v -12.4012 5.93 0 0.494118 0.494118 0.52549
v -12.4012 18.93 0 0.494118 0.494118 0.52549
v -12.4012 18.93 20 0.494118 0.494118 0.52549
v -12.4012 5.93 20 0.494118 0.494118 0.52549
vn 1 -0 -0
vn -0 -1 -0
vn -1 -0 0
vn 1 0 -0
vn -0 -0 -1
vn 0 0 1
vn 0 -1 0
vn -1 0 0
vn -0 1 -0
vt 0 -6.5
vt -20 -6.5
vt -20 6.5
vt 0 6.5
vt 0 -12.085
vt -20 -12.085
vt -20 12.085
vt 0 12.085
vt 0 3.82
vt 20 3.82
vt 20 -1.34
vt -0 -1.34
vt 0 -2.915
vt -20 -2.915
vt -20 2.915
vt 0 2.915
vt -0 -3.14
vt 20 -3.14
vt 20 2.02
vt 0 2.02
vt -12.4012 5.93
vt -12.4012 18.93
vt 3.79 11.09
vt 33.79 18.93
vt 9.62 11.09
vt 33.79 5.93
vt 9.62 5.93
vt 3.79 5.93
vt 33.79 5.93
vt 33.79 18.93
vt 9.62 11.09
vt -12.4012 18.93
vt 3.79 11.09
vt -12.4012 5.93
vt 3.79 5.93
vt 9.62 5.93
vt -0 -8.0956
vt 20 -8.0956
vt 20 8.0956
vt 0 8.0956
vt 0 6.5
vt -20 6.5
vt -20 -6.5
vt 0 -6.5
vt 0 12.085
vt 20 12.085
vt 20 -34.1062
vt -0 -34.1062
f 13/37/8 14/38/8 15/39/8
f 15/39/8 16/40/8 13/37/8
f 17/41/9 18/42/9 14/43/9
f 14/43/9 13/44/9 17/41/9
f 19/45/10 20/46/10 18/47/10
f 18/47/10 17/48/10 19/45/10
f 21/49/9 22/50/9 20/51/9
f 20/51/9 19/52/9 21/49/9
f 23/53/11 24/54/11 22/55/11
f 22/55/11 21/56/11 23/53/11
f 25/57/12 26/58/12 22/59/12
f 26/58/12 15/60/12 20/61/12
f 20/61/12 22/59/12 26/58/12
f 14/62/12 18/63/12 20/61/12
f 20/61/12 15/60/12 14/62/12
f 22/59/12 24/64/12 25/57/12
f 13/65/13 16/66/13 19/67/13
f 27/68/13 21/69/13 19/67/13
f 19/67/13 16/66/13 27/68/13
f 28/70/13 23/71/13 21/69/13
f 21/69/13 27/68/13 28/70/13
f 19/67/13 17/72/13 13/65/13
f 28/73/14 25/74/14 24/75/14
f 24/75/14 23/76/14 28/73/14
f 27/77/15 26/78/15 25/79/15
f 25/79/15 28/80/15 27/77/15
f 16/81/16 15/82/16 26/83/16
f 26/83/16 27/84/16 16/81/16
