g ____41
v 16.7807 10.49 2.2 0.886275 0.890196 0.890196
v 16.7807 12.19 2.2 0.886275 0.890196 0.890196
v 17.4807 12.19 2.2 0.886275 0.890196 0.890196
v 17.4807 10.49 2.2 0.886275 0.890196 0.890196
v 17.4807 11.64 4.7 0.886275 0.890196 0.890196
v 17.4807 12.19 4.7 0.886275 0.890196 0.890196
v 17.4807 10.49 4.7 0.886275 0.890196 0.890196
v 16.7807 10.49 4.7 0.886275 0.890196 0.890196
v 16.7807 11.64 4.7 0.886275 0.890196 0.890196
v 16.7807 12.19 4.7 0.886275 0.890196 0.890196
v -7.68591 16.07 4.7 0.886275 0.890196 0.890196
v -5.99576 16.07 4.7 0.886275 0.890196 0.890196
v -2.07415 16.07 4.7 0.886275 0.890196 0.890196
v 1.62365 16.07 4.7 0.886275 0.890196 0.890196
v 7.49003 16.07 4.7 0.886275 0.890196 0.890196
v -7.68591 11.64 4.7 0.886275 0.890196 0.890196
v -7.68591 10.24 4.7 0.886275 0.890196 0.890196
v -5.99576 6.83 4.7 0.886275 0.890196 0.890196
v 14.3354 6.83 4.7 0.886275 0.890196 0.890196
v 20.3126 6.83 4.7 0.886275 0.890196 0.890196
v 25.0859 10.24 4.7 0.886275 0.890196 0.890196
v 25.0859 6.83 4.7 0.886275 0.890196 0.890196
v 11.8901 10.49 4.7 0.886275 0.890196 0.890196
v 11.1901 10.49 4.7 0.886275 0.890196 0.890196
v 11.1901 11.64 4.7 0.886275 0.890196 0.890196
v 11.1901 12.19 4.7 0.886275 0.890196 0.890196
v 14.3354 16.07 4.7 0.886275 0.890196 0.890196
v 11.8901 12.19 4.7 0.886275 0.890196 0.890196
v 11.8901 11.64 4.7 0.886275 0.890196 0.890196
v -4.3056 11.09 4.7 0.886275 0.890196 0.890196
v -3.6056 11.09 4.7 0.886275 0.890196 0.890196
v -3.6056 10.24 4.7 0.886275 0.890196 0.890196
v -2.07415 6.83 4.7 0.886275 0.890196 0.890196
v -3.6056 9.99 4.7 0.886275 0.890196 0.890196
v -4.3056 9.99 4.7 0.886275 0.890196 0.890196
v -4.3056 10.24 4.7 0.886275 0.890196 0.890196
v -0.542698 11.09 4.7 0.886275 0.890196 0.890196
v 0.157302 11.09 4.7 0.886275 0.890196 0.890196
v 0.157302 10.24 4.7 0.886275 0.890196 0.890196
v 1.62365 6.83 4.7 0.886275 0.890196 0.890196
v -0.542698 9.99 4.7 0.886275 0.890196 0.890196
v -0.542698 10.24 4.7 0.886275 0.890196 0.890196
v 0.157302 9.99 4.7 0.886275 0.890196 0.890196
v 20.3126 16.07 4.7 0.886275 0.890196 0.890196
v 7.49003 6.83 4.7 0.886275 0.890196 0.890196
v 3.79 9.99 4.7 0.886275 0.890196 0.890196
v 3.09 9.99 4.7 0.886275 0.890196 0.890196
v 3.09 10.24 4.7 0.886275 0.890196 0.890196
v 3.09 11.09 4.7 0.886275 0.890196 0.890196
v 3.79 11.09 4.7 0.886275 0.890196 0.890196
v 3.79 10.24 4.7 0.886275 0.890196 0.890196
v 23.1446 12.19 4.7 0.886275 0.890196 0.890196
v 25.0859 16.07 4.7 0.886275 0.890196 0.890196
v 23.8446 12.19 4.7 0.886275 0.890196 0.890196
v 25.0859 11.64 4.7 0.886275 0.890196 0.890196
v 23.8446 11.64 4.7 0.886275 0.890196 0.890196
v 23.1446 10.49 4.7 0.886275 0.890196 0.890196
v 23.1446 11.64 4.7 0.886275 0.890196 0.890196
v 23.8446 10.49 4.7 0.886275 0.890196 0.890196
v -7.68591 6.83 4.7 0.886275 0.890196 0.890196
v -5.99576 11.64 4.7 0.886275 0.890196 0.890196
v -2.07415 11.64 4.7 0.886275 0.890196 0.890196
v 1.62365 11.64 4.7 0.886275 0.890196 0.890196
v 7.49003 11.64 4.7 0.886275 0.890196 0.890196
v -5.99576 10.24 4.7 0.886275 0.890196 0.890196
v 7.49003 10.24 4.7 0.886275 0.890196 0.890196
v 14.3354 10.24 4.7 0.886275 0.890196 0.890196
v 20.3126 10.24 4.7 0.886275 0.890196 0.890196
v 14.3354 11.64 4.7 0.886275 0.890196 0.890196
v -2.07415 10.24 4.7 0.886275 0.890196 0.890196
v 1.62365 10.24 4.7 0.886275 0.890196 0.890196
v 20.3126 11.64 4.7 0.886275 0.890196 0.890196
v 11.8901 10.49 2.2 0.886275 0.890196 0.890196
v 11.8901 12.19 2.2 0.886275 0.890196 0.890196
v 11.1901 10.49 2.2 0.886275 0.890196 0.890196
v 11.1901 12.19 2.2 0.886275 0.890196 0.890196
v -4.3056 11.09 0.2 0.886275 0.890196 0.890196
v -4.3056 9.99 0.2 0.886275 0.890196 0.890196
v -3.6056 11.09 0.2 0.886275 0.890196 0.890196
v -3.6056 9.99 0.2 0.886275 0.890196 0.890196
v 0.157302 11.09 0.2 0.886275 0.890196 0.890196
v -0.542698 11.09 0.2 0.886275 0.890196 0.890196
v -0.542698 9.99 0.2 0.886275 0.890196 0.890196
v 0.157302 9.99 0.2 0.886275 0.890196 0.890196
v -7.68591 6.83 5.3 0.886275 0.890196 0.890196
v -7.68591 16.07 5.3 0.886275 0.890196 0.890196
v 25.0859 16.07 5.3 0.886275 0.890196 0.890196
v 25.0859 6.83 5.3 0.886275 0.890196 0.890196
v 3.79 11.09 0.2 0.886275 0.890196 0.890196
v 3.79 9.99 0.2 0.886275 0.890196 0.890196
v 3.09 9.99 0.2 0.886275 0.890196 0.890196
v 3.09 11.09 0.2 0.886275 0.890196 0.890196
v 23.8446 10.49 2.2 0.886275 0.890196 0.890196
v 23.8446 12.19 2.2 0.886275 0.890196 0.890196
v 23.1446 10.49 2.2 0.886275 0.890196 0.890196
v 23.1446 12.19 2.2 0.886275 0.890196 0.890196
vn -0 -0 -1
vn 1 -0 -0
vn -0 -1 -0
vn -1 -0 0
vn -0 1 -0
vn -0 -0 -1
vn 1 -0 -0
vn -0 -1 -0
vn -1 -0 0
vn -0 1 -0
vn -0 -0 -1
vn 0 -1 0
vn 1 0 -0
vn -0 1 -0
vn -0 -0 -1
vn -1 -0 0
vn -0 -1 -0
vn 1 -0 -0
vn -1 -0 -0
vn 0 0 1
vn -0 1 -0
vn 1 -0 -0
vn -3.02391e-17 -1 0
vn -0 -0 -1
vn -0 1 -0
vn -0 -1 -0
vn -1 -0 0
vn 1 -0 -0
vn -0 -0 -1
vn -0 -1 -0
vn -1 -0 0
vn -0 1 -0
vt 16.7807 10.49
vt 16.7807 12.19
vt 17.4807 12.19
vt 17.4807 10.49
vt -3.1 -1.15
vt -3.1 0.55
vt -0.6 0
vt -0.6 0.55
vt -0.6 -1.15
vt -0.6 -0.35
vt -3.1 -0.35
vt -3.1 0.35
vt -0.6 0.35
vt 3.1 -1.15
vt 0.6 -1.15
vt 0.6 0
vt 3.1 0.55
vt 0.6 0.55
vt 0.6 0.35
vt 3.1 0.35
vt 3.1 -0.35
vt 0.6 -0.35
vt -7.68591 16.07
vt -5.99576 16.07
vt -5.99576 11.64
vt -2.07415 16.07
vt -2.07415 11.64
vt 1.62365 16.07
vt 1.62365 11.64
vt 7.49003 16.07
vt 7.49003 11.64
vt -7.68591 11.64
vt -5.99576 10.24
vt -7.68591 10.24
vt -5.99576 6.83
vt 7.49003 10.24
vt 14.3354 10.24
vt 14.3354 6.83
vt 20.3126 10.24
vt 20.3126 6.83
vt 25.0859 10.24
vt 25.0859 6.83
vt 14.3354 11.64
vt 11.8901 10.49
vt 11.1901 10.49
vt 11.1901 11.64
vt 11.1901 12.19
vt 14.3354 16.07
vt 11.8901 12.19
vt 11.8901 11.64
vt -4.3056 11.09
vt -3.6056 11.09
vt -2.07415 10.24
vt -3.6056 10.24
vt -2.07415 6.83
vt -3.6056 9.99
vt -4.3056 9.99
vt -4.3056 10.24
vt -0.542698 11.09
vt 0.157302 11.09
vt 1.62365 10.24
vt 0.157302 10.24
vt 1.62365 6.83
vt -0.542698 9.99
vt -0.542698 10.24
vt 0.157302 9.99
vt 20.3126 11.64
vt 17.4807 10.49
vt 16.7807 10.49
vt 16.7807 11.64
vt 16.7807 12.19
vt 20.3126 16.07
vt 17.4807 12.19
vt 17.4807 11.64
vt 7.49003 6.83
vt 3.79 9.99
vt 3.09 9.99
vt 3.09 10.24
vt 3.09 11.09
vt 3.79 11.09
vt 3.79 10.24
vt 23.1446 12.19
vt 25.0859 16.07
vt 23.8446 12.19
vt 25.0859 11.64
vt 23.8446 11.64
vt 23.1446 10.49
vt 23.1446 11.64
vt 23.8446 10.49
vt -7.68591 6.83
vt -2.9 -1.15
vt -2.9 0.55
vt -0.4 0
vt -0.4 0.55
vt -0.4 -1.15
vt 11.1901 10.49
vt 11.1901 12.19
vt 11.8901 12.19
vt 11.8901 10.49
vt -0.4 -0.35
vt -2.9 -0.35
vt -2.9 0.35
vt -0.4 0.35
vt 2.9 -1.15
vt 0.4 -1.15
vt 0.4 0
vt 2.9 0.55
vt 0.4 0.55
vt 0.4 0.35
vt 2.9 0.35
vt 2.9 -0.35
vt 0.4 -0.35
vt -0.1 2.19414
vt -0.1 1.09414
vt -4.6 1.34414
vt -4.6 1.09414
vt -4.6 2.19414
vt -4.3056 9.99
vt -4.3056 11.09
vt -3.6056 11.09
vt -3.6056 9.99
vt -4.6 -4.0478
vt -4.6 -3.3478
vt -0.1 -3.3478
vt -0.1 -4.0478
vt -8.88178e-16 -0.35
vt 4.5 -0.35
vt 4.5 0.35
vt -8.88178e-16 0.35
vt 4.5 0.55
vt -8.88178e-16 0.55
vt -8.88178e-16 -0.3
vt 4.5 -0.55
vt -8.88178e-16 -0.55
vt -4.6 -0.284897
vt -4.6 0.415103
vt -0.1 0.415103
vt -0.1 -0.284897
vt -0.542698 9.99
vt -0.542698 11.09
vt 0.157302 11.09
vt 0.157302 9.99
vt 4.5 0.55
vt 4.5 -0.55
vt -8.88178e-16 -0.3
vt -8.88178e-16 -0.55
vt 0 0.55
vt -4.5 0.35
vt 8.88178e-16 0.35
vt 0 -0.35
vt -4.5 -0.35
vt -4.5 0.55
vt 8.88178e-16 0.55
vt 8.88178e-16 -0.3
vt -4.5 -0.55
vt 0 -0.55
vt -0.6 -4.62
vt -0.6 4.62
vt 0 0.19
vt 0 -1.21
vt 0 4.62
vt 0 -4.62
vt 25.0859 16.07
vt -7.68591 16.07
vt -7.68591 6.83
vt 25.0859 6.83
vt -0.6 -14.6859
vt -0 -9.07415
vt -0 -12.9958
vt -0 -5.37635
vt 0 0.490028
vt -0.6 18.0859
vt 0 7.33536
vt 0 13.3126
vt 0 18.0859
vt -0 -14.6859
vt 0.6 -4.62
vt 0 -1.21
vt 0 0.19
vt 0.6 4.62
vt 0 -4.62
vt 0 4.62
vt -18.0859 0.6
vt -7.33536 0
vt -13.3126 0
vt 14.6859 0.6
vt -0.490028 0
vt 5.37635 0
vt 9.07415 0
vt 12.9958 0
vt 14.6859 0
vt -18.0859 0
vt 0.1 2.19414
vt 4.6 2.19414
vt 4.6 1.34414
vt 0.1 1.09414
vt 4.6 1.09414
vt 3.79 11.09
vt 3.79 9.99
vt 3.09 9.99
vt 3.09 11.09
vt -4.6 4.0478
vt -0.1 4.0478
vt -0.1 3.3478
vt -4.6 3.3478
vt -3 0.35
vt 1.5 0.35
vt 1.5 -0.35
vt -3 -0.35
vt 3 0.55
vt 3 -0.55
vt -1.5 -0.3
vt -1.5 -0.55
vt -1.5 0.55
vt -3.6 -1.15
vt -3.6 0.55
vt -1.1 0
vt -1.1 0.55
vt -1.1 -1.15
vt 23.1446 10.49
vt 23.1446 12.19
vt 23.8446 12.19
vt 23.8446 10.49
vt -3.6 0.35
vt -1.1 0.35
vt -1.1 -0.35
vt -3.6 -0.35
vt 3.6 -1.15
vt 1.1 -1.15
vt 1.1 0
vt 3.6 0.55
vt 1.1 0.55
vt 1.1 0.35
vt 3.6 0.35
vt 3.6 -0.35
vt 1.1 -0.35
f 1/1/1 2/2/1 3/3/1
f 3/3/1 4/4/1 1/1/1
f 4/5/2 3/6/2 5/7/2
f 3/6/2 6/8/2 5/7/2
f 5/7/2 7/9/2 4/5/2
f 8/10/3 1/11/3 4/12/3
f 4/12/3 7/13/3 8/10/3
f 1/14/4 8/15/4 9/16/4
f 9/16/4 2/17/4 1/14/4
f 9/16/4 10/18/4 2/17/4
f 6/19/5 3/20/5 2/21/5
f 2/21/5 10/22/5 6/19/5
f 11/23/6 12/24/6 61/25/6
f 12/24/6 13/26/6 62/27/6
f 13/26/6 14/28/6 63/29/6
f 14/28/6 15/30/6 64/31/6
f 16/32/6 61/25/6 65/33/6
f 17/34/6 65/33/6 18/35/6
f 66/36/6 67/37/6 19/38/6
f 67/37/6 68/39/6 20/40/6
f 68/39/6 21/41/6 22/42/6
f 69/43/6 67/37/6 23/44/6
f 67/37/6 66/36/6 24/45/6
f 24/45/6 23/44/6 67/37/6
f 64/31/6 25/46/6 24/45/6
f 24/45/6 66/36/6 64/31/6
f 64/31/6 15/30/6 26/47/6
f 27/48/6 28/49/6 26/47/6
f 26/47/6 15/30/6 27/48/6
f 69/43/6 29/50/6 28/49/6
f 28/49/6 27/48/6 69/43/6
f 65/33/6 61/25/6 30/51/6
f 62/27/6 31/52/6 30/51/6
f 30/51/6 61/25/6 62/27/6
f 70/53/6 32/54/6 31/52/6
f 31/52/6 62/27/6 70/53/6
f 70/53/6 33/55/6 34/56/6
f 33/55/6 18/35/6 35/57/6
f 35/57/6 34/56/6 33/55/6
f 65/33/6 36/58/6 35/57/6
f 35/57/6 18/35/6 65/33/6
f 70/53/6 62/27/6 37/59/6
f 63/29/6 38/60/6 37/59/6
f 37/59/6 62/27/6 63/29/6
f 71/61/6 39/62/6 38/60/6
f 38/60/6 63/29/6 71/61/6
f 40/63/6 33/55/6 41/64/6
f 70/53/6 42/65/6 41/64/6
f 71/61/6 40/63/6 43/66/6
f 41/64/6 33/55/6 70/53/6
f 41/64/6 43/66/6 40/63/6
f 72/67/6 68/39/6 7/68/6
f 67/37/6 8/69/6 7/68/6
f 7/68/6 68/39/6 67/37/6
f 69/43/6 9/70/6 8/69/6
f 8/69/6 67/37/6 69/43/6
f 69/43/6 27/48/6 10/71/6
f 27/48/6 44/72/6 6/73/6
f 6/73/6 10/71/6 27/48/6
f 72/67/6 5/74/6 6/73/6
f 6/73/6 44/72/6 72/67/6
f 66/36/6 45/75/6 46/76/6
f 40/63/6 47/77/6 46/76/6
f 46/76/6 45/75/6 40/63/6
f 71/61/6 48/78/6 47/77/6
f 47/77/6 40/63/6 71/61/6
f 71/61/6 63/29/6 49/79/6
f 63/29/6 64/31/6 50/80/6
f 50/80/6 49/79/6 63/29/6
f 66/36/6 51/81/6 50/80/6
f 50/80/6 64/31/6 66/36/6
f 72/67/6 44/72/6 52/82/6
f 53/83/6 54/84/6 52/82/6
f 52/82/6 44/72/6 53/83/6
f 55/85/6 56/86/6 54/84/6
f 54/84/6 53/83/6 55/85/6
f 21/41/6 68/39/6 57/87/6
f 72/67/6 58/88/6 57/87/6
f 55/85/6 21/41/6 59/89/6
f 57/87/6 68/39/6 72/67/6
f 57/87/6 59/89/6 21/41/6
f 59/89/6 56/86/6 55/85/6
f 52/82/6 58/88/6 72/67/6
f 49/79/6 48/78/6 71/61/6
f 46/76/6 51/81/6 66/36/6
f 10/71/6 9/70/6 69/43/6
f 7/68/6 5/74/6 72/67/6
f 43/66/6 39/62/6 71/61/6
f 37/59/6 42/65/6 70/53/6
f 34/56/6 32/54/6 70/53/6
f 30/51/6 36/58/6 65/33/6
f 26/47/6 25/46/6 64/31/6
f 23/44/6 29/50/6 69/43/6
f 22/42/6 20/40/6 68/39/6
f 20/40/6 19/38/6 67/37/6
f 19/38/6 45/75/6 66/36/6
f 18/35/6 60/90/6 17/34/6
f 65/33/6 17/34/6 16/32/6
f 64/31/6 63/29/6 14/28/6
f 63/29/6 62/27/6 13/26/6
f 62/27/6 61/25/6 12/24/6
f 61/25/6 16/32/6 11/23/6
f 73/91/7 74/92/7 29/93/7
f 74/92/7 28/94/7 29/93/7
f 29/93/7 23/95/7 73/91/7
f 75/96/6 76/97/6 74/98/6
f 74/98/6 73/99/6 75/96/6
f 24/100/8 75/101/8 73/102/8
f 73/102/8 23/103/8 24/100/8
f 75/104/9 24/105/9 25/106/9
f 25/106/9 76/107/9 75/104/9
f 25/106/9 26/108/9 76/107/9
f 28/109/10 74/110/10 76/111/10
f 76/111/10 26/112/10 28/109/10
f 77/113/9 78/114/9 36/115/9
f 78/114/9 35/116/9 36/115/9
f 36/115/9 30/117/9 77/113/9
f 78/118/11 77/119/11 79/120/11
f 79/120/11 80/121/11 78/118/11
f 30/122/10 31/123/10 79/124/10
f 79/124/10 77/125/10 30/122/10
f 35/126/12 78/127/12 80/128/12
f 80/128/12 34/129/12 35/126/12
f 79/130/13 31/131/13 32/132/13
f 32/132/13 80/133/13 79/130/13
f 32/132/13 34/134/13 80/133/13
f 37/135/14 38/136/14 81/137/14
f 81/137/14 82/138/14 37/135/14
f 83/139/15 82/140/15 81/141/15
f 81/141/15 84/142/15 83/139/15
f 82/143/16 83/144/16 42/145/16
f 83/144/16 41/146/16 42/145/16
f 42/145/16 37/147/16 82/143/16
f 84/148/17 43/149/17 41/150/17
f 41/150/17 83/151/17 84/148/17
f 81/152/18 38/153/18 39/154/18
f 39/154/18 84/155/18 81/152/18
f 39/154/18 43/156/18 84/155/18
f 85/157/19 86/158/19 16/159/19
f 16/159/19 17/160/19 85/157/19
f 86/158/19 11/161/19 16/159/19
f 17/160/19 60/162/19 85/157/19
f 87/163/20 86/164/20 85/165/20
f 85/165/20 88/166/20 87/163/20
f 86/167/21 13/168/21 12/169/21
f 86/167/21 14/170/21 13/168/21
f 86/167/21 15/171/21 14/170/21
f 87/172/21 27/173/21 15/171/21
f 15/171/21 86/167/21 87/172/21
f 87/172/21 44/174/21 27/173/21
f 87/172/21 53/175/21 44/174/21
f 12/169/21 11/176/21 86/167/21
f 88/177/22 21/178/22 55/179/22
f 55/179/22 87/180/22 88/177/22
f 88/177/22 22/181/22 21/178/22
f 55/179/22 53/182/22 87/180/22
f 88/183/23 19/184/23 20/185/23
f 88/183/23 85/186/23 45/187/23
f 45/187/23 19/184/23 88/183/23
f 85/186/23 40/188/23 45/187/23
f 85/186/23 33/189/23 40/188/23
f 85/186/23 18/190/23 33/189/23
f 85/186/23 60/191/23 18/190/23
f 20/185/23 22/192/23 88/183/23
f 89/193/22 50/194/22 51/195/22
f 51/195/22 90/196/22 89/193/22
f 51/195/22 46/197/22 90/196/22
f 89/198/24 90/199/24 91/200/24
f 91/200/24 92/201/24 89/198/24
f 50/202/25 89/203/25 92/204/25
f 92/204/25 49/205/25 50/202/25
f 90/206/26 46/207/26 47/208/26
f 47/208/26 91/209/26 90/206/26
f 92/210/27 91/211/27 48/212/27
f 91/211/27 47/213/27 48/212/27
f 48/212/27 49/214/27 92/210/27
f 93/215/28 94/216/28 56/217/28
f 94/216/28 54/218/28 56/217/28
f 56/217/28 59/219/28 93/215/28
f 95/220/29 96/221/29 94/222/29
f 94/222/29 93/223/29 95/220/29
f 93/224/30 59/225/30 57/226/30
f 57/226/30 95/227/30 93/224/30
f 95/228/31 57/229/31 58/230/31
f 58/230/31 96/231/31 95/228/31
f 58/230/31 52/232/31 96/231/31
f 54/233/32 94/234/32 96/235/32
f 96/235/32 52/236/32 54/233/32
