g ____53
v -4.35 -8.08 0 0.494118 0.494118 0.52549
v -4.35 -6.58 0 0.494118 0.494118 0.52549
v -5.85 -6.58 0 0.494118 0.494118 0.52549
v -5.85 -8.08 0 0.494118 0.494118 0.52549
v -4.35 -6.58 -0.07 0.494118 0.494118 0.52549
v -4.35 -8.08 -0.07 0.494118 0.494118 0.52549
v -5.85 -8.08 -0.07 0.494118 0.494118 0.52549
v -5.85 -6.58 -0.07 0.494118 0.494118 0.52549
vn 0 0 1
vn 1 0 0
vn -0 -0 -1
vn -0 -1 0
vn -1 0 0
vn 0 1 -0
vt -4.35 -8.08
vt -4.35 -6.58
vt -5.85 -6.58
vt -5.85 -8.08
vt 0 0.75
vt -0.07 0.75
vt -0.07 -0.75
vt 0 -0.75
vt -5.85 -8.08
vt -5.85 -6.58
vt -4.35 -6.58
vt -4.35 -8.08
vt 0 0.75
vt 0.07 0.75
vt 0.07 -0.75
vt 0 -0.75
vt 0 -0.75
vt 0.07 -0.75
vt 0.07 0.75
vt 0 0.75
vt 0 -0.75
vt 0.07 -0.75
vt 0.07 0.75
vt 0 0.75
f 1/1/1 2/2/1 3/3/1
f 3/3/1 4/4/1 1/1/1
f 5/5/2 2/6/2 1/7/2
f 1/7/2 6/8/2 5/5/2
f 7/9/3 8/10/3 5/11/3
f 5/11/3 6/12/3 7/9/3
f 6/13/4 1/14/4 4/15/4
f 4/15/4 7/16/4 6/13/4
f 7/17/5 4/18/5 3/19/5
f 3/19/5 8/20/5 7/17/5
f 8/21/6 3/22/6 2/23/6
f 2/23/6 5/24/6 8/21/6
